<svg xmlns="http://www.w3.org/2000/svg" viewBox="0 0 760 560" preserveAspectRatio="xMidYMid meet" role="img" aria-label="An engineering-schematic drawing of the Synaptic codebase dependency graph">
<text x="26" y="22" fill="#557a93" font-family="ui-monospace,'Spline Sans Mono',monospace" font-size="10.5" letter-spacing="0.12em">FIG.1  DEPENDENCY GRAPH</text>
<g stroke="#557a93" stroke-opacity="0.5" stroke-width="0.8"><line x1="275.6" y1="211.2" x2="217.5" y2="262.4"/><line x1="275.6" y1="211.2" x2="231.1" y2="248.6"/><line x1="275.6" y1="211.2" x2="254.3" y2="288.5"/><line x1="275.6" y1="211.2" x2="243.2" y2="270.1"/><line x1="275.6" y1="211.2" x2="220.8" y2="278.5"/><line x1="334.5" y1="355.4" x2="254.3" y2="288.5"/><line x1="334.5" y1="355.4" x2="296.1" y2="329.3"/><line x1="334.5" y1="355.4" x2="219.1" y2="350"/><line x1="334.5" y1="355.4" x2="228.7" y2="373.1"/><line x1="314.4" y1="336.5" x2="321.9" y2="413.4"/><line x1="314.4" y1="336.5" x2="217.5" y2="262.4"/><line x1="314.4" y1="336.5" x2="254.3" y2="288.5"/><line x1="314.4" y1="336.5" x2="399.8" y2="390.8"/><line x1="314.4" y1="336.5" x2="243.2" y2="270.1"/><line x1="314.4" y1="336.5" x2="220.8" y2="278.5"/><line x1="156.4" y1="242" x2="217.5" y2="262.4"/><line x1="156.4" y1="242" x2="231.1" y2="248.6"/><line x1="156.4" y1="242" x2="254.3" y2="288.5"/><line x1="156.4" y1="242" x2="190.1" y2="283.2"/><line x1="156.4" y1="242" x2="243.2" y2="270.1"/><line x1="156.4" y1="242" x2="220.8" y2="278.5"/><line x1="234.2" y1="199.4" x2="190.4" y2="252.6"/><line x1="234.2" y1="199.4" x2="254.3" y2="288.5"/><line x1="234.2" y1="199.4" x2="252.9" y2="249.2"/><line x1="234.2" y1="199.4" x2="220.8" y2="278.5"/><line x1="227.3" y1="168" x2="150.8" y2="180.3"/><line x1="227.3" y1="168" x2="216.3" y2="232.2"/><line x1="227.3" y1="168" x2="190.4" y2="252.6"/><line x1="227.3" y1="168" x2="252.9" y2="249.2"/><line x1="227.3" y1="168" x2="243.2" y2="270.1"/><line x1="227.3" y1="168" x2="220.8" y2="278.5"/><line x1="249.6" y1="318.6" x2="238.8" y2="445.9"/><line x1="249.6" y1="318.6" x2="190.4" y2="252.6"/><line x1="249.6" y1="318.6" x2="321.9" y2="413.4"/><line x1="249.6" y1="318.6" x2="220.8" y2="278.5"/><line x1="302.6" y1="263.2" x2="216.3" y2="232.2"/><line x1="302.6" y1="263.2" x2="190.4" y2="252.6"/><line x1="302.6" y1="263.2" x2="243.2" y2="270.1"/><line x1="302.6" y1="263.2" x2="220.8" y2="278.5"/><line x1="140" y1="326.3" x2="103.2" y2="413.9"/><line x1="140" y1="326.3" x2="190.4" y2="252.6"/><line x1="140" y1="326.3" x2="252.9" y2="249.2"/><line x1="140" y1="326.3" x2="220.8" y2="278.5"/><line x1="289.3" y1="508.7" x2="238.8" y2="445.9"/><line x1="152" y1="467.5" x2="238.8" y2="445.9"/><line x1="152" y1="467.5" x2="83.8" y2="386.4"/><line x1="178.6" y1="333.5" x2="216.3" y2="232.2"/><line x1="178.6" y1="333.5" x2="217.5" y2="262.4"/><line x1="178.6" y1="333.5" x2="231.1" y2="248.6"/><line x1="178.6" y1="333.5" x2="190.1" y2="283.2"/><line x1="178.6" y1="333.5" x2="243.2" y2="270.1"/><line x1="178.6" y1="333.5" x2="220.8" y2="278.5"/><line x1="177.8" y1="226.3" x2="216.3" y2="232.2"/><line x1="177.8" y1="226.3" x2="217.5" y2="262.4"/><line x1="177.8" y1="226.3" x2="231.1" y2="248.6"/><line x1="177.8" y1="226.3" x2="254.3" y2="288.5"/><line x1="177.8" y1="226.3" x2="219.1" y2="350"/><line x1="177.8" y1="226.3" x2="243.2" y2="270.1"/><line x1="177.8" y1="226.3" x2="220.8" y2="278.5"/><line x1="306.6" y1="209.9" x2="357.9" y2="287.9"/><line x1="306.6" y1="209.9" x2="217.5" y2="262.4"/><line x1="306.6" y1="209.9" x2="281.3" y2="302"/><line x1="306.6" y1="209.9" x2="243.2" y2="270.1"/><line x1="181.2" y1="195.7" x2="216.3" y2="232.2"/><line x1="181.2" y1="195.7" x2="231.1" y2="248.6"/><line x1="181.2" y1="195.7" x2="254.3" y2="288.5"/><line x1="181.2" y1="195.7" x2="243.2" y2="270.1"/><line x1="181.2" y1="195.7" x2="220.8" y2="278.5"/><line x1="158.6" y1="270.5" x2="216.3" y2="232.2"/><line x1="158.6" y1="270.5" x2="231.1" y2="248.6"/><line x1="158.6" y1="270.5" x2="252.9" y2="249.2"/><line x1="158.6" y1="270.5" x2="243.2" y2="270.1"/><line x1="158.6" y1="270.5" x2="220.8" y2="278.5"/><line x1="362.2" y1="255.1" x2="254.3" y2="288.5"/><line x1="362.2" y1="255.1" x2="243.2" y2="270.1"/><line x1="205" y1="187.4" x2="216.3" y2="232.2"/><line x1="205" y1="187.4" x2="231.1" y2="248.6"/><line x1="205" y1="187.4" x2="190.1" y2="283.2"/><line x1="205" y1="187.4" x2="243.2" y2="270.1"/><line x1="205" y1="187.4" x2="220.8" y2="278.5"/><line x1="339.1" y1="208" x2="254.3" y2="288.5"/><line x1="339.1" y1="208" x2="243.2" y2="270.1"/><line x1="183.8" y1="310.3" x2="216.3" y2="232.2"/><line x1="183.8" y1="310.3" x2="254.3" y2="288.5"/><line x1="183.8" y1="310.3" x2="288.4" y2="366.8"/><line x1="183.8" y1="310.3" x2="284.1" y2="279.6"/><line x1="183.8" y1="310.3" x2="243.2" y2="270.1"/><line x1="183.8" y1="310.3" x2="220.8" y2="278.5"/><line x1="246.4" y1="385.8" x2="254.3" y2="288.5"/><line x1="246.4" y1="385.8" x2="252.9" y2="249.2"/><line x1="246.4" y1="385.8" x2="243.2" y2="270.1"/><line x1="375.9" y1="211.9" x2="357.9" y2="287.9"/><line x1="375.9" y1="211.9" x2="379.1" y2="135.7"/><line x1="375.9" y1="211.9" x2="243.2" y2="270.1"/><line x1="148.9" y1="299.1" x2="217.5" y2="262.4"/><line x1="148.9" y1="299.1" x2="254.3" y2="288.5"/><line x1="148.9" y1="299.1" x2="243.2" y2="270.1"/><line x1="307.8" y1="236.1" x2="217.5" y2="262.4"/><line x1="307.8" y1="236.1" x2="231.1" y2="248.6"/><line x1="307.8" y1="236.1" x2="254.3" y2="288.5"/><line x1="307.8" y1="236.1" x2="243.2" y2="270.1"/><line x1="307.8" y1="236.1" x2="220.8" y2="278.5"/><line x1="307.8" y1="236.1" x2="329.6" y2="283.2"/><line x1="263.6" y1="355.4" x2="357.9" y2="287.9"/><line x1="263.6" y1="355.4" x2="217.5" y2="262.4"/><line x1="263.6" y1="355.4" x2="254.3" y2="288.5"/><line x1="263.6" y1="355.4" x2="243.2" y2="270.1"/><line x1="263.6" y1="355.4" x2="220.8" y2="278.5"/><line x1="243" y1="343" x2="321.9" y2="413.4"/><line x1="243" y1="343" x2="217.5" y2="262.4"/><line x1="243" y1="343" x2="231.1" y2="248.6"/><line x1="243" y1="343" x2="190.1" y2="283.2"/><line x1="243" y1="343" x2="243.2" y2="270.1"/><line x1="243" y1="343" x2="220.8" y2="278.5"/><line x1="291.6" y1="170" x2="216.3" y2="232.2"/><line x1="291.6" y1="170" x2="243.2" y2="270.1"/><line x1="291.6" y1="170" x2="329.6" y2="283.2"/><line x1="147.6" y1="213.3" x2="216.3" y2="232.2"/><line x1="147.6" y1="213.3" x2="217.5" y2="262.4"/><line x1="147.6" y1="213.3" x2="231.1" y2="248.6"/><line x1="147.6" y1="213.3" x2="190.1" y2="283.2"/><line x1="147.6" y1="213.3" x2="126.2" y2="276.3"/><line x1="147.6" y1="213.3" x2="243.2" y2="270.1"/><line x1="147.6" y1="213.3" x2="220.8" y2="278.5"/><line x1="149.3" y1="353.2" x2="254.3" y2="288.5"/><line x1="149.3" y1="353.2" x2="190.1" y2="283.2"/><line x1="149.3" y1="353.2" x2="243.2" y2="270.1"/><line x1="342.4" y1="320.5" x2="404.4" y2="265.3"/><line x1="342.4" y1="320.5" x2="321.9" y2="413.4"/><line x1="342.4" y1="320.5" x2="231.1" y2="248.6"/><line x1="342.4" y1="320.5" x2="243.2" y2="270.1"/><line x1="207.1" y1="326.9" x2="216.3" y2="232.2"/><line x1="207.1" y1="326.9" x2="231.1" y2="248.6"/><line x1="207.1" y1="326.9" x2="254.3" y2="288.5"/><line x1="207.1" y1="326.9" x2="278.1" y2="336.1"/><line x1="207.1" y1="326.9" x2="288.4" y2="366.8"/><line x1="207.1" y1="326.9" x2="321.2" y2="310"/><line x1="207.1" y1="326.9" x2="243.2" y2="270.1"/><line x1="207.1" y1="326.9" x2="220.8" y2="278.5"/><line x1="128.1" y1="240.5" x2="216.3" y2="232.2"/><line x1="128.1" y1="240.5" x2="231.1" y2="248.6"/><line x1="128.1" y1="240.5" x2="243.2" y2="270.1"/><line x1="128.1" y1="240.5" x2="220.8" y2="278.5"/><line x1="337.8" y1="242.1" x2="254.3" y2="288.5"/><line x1="337.8" y1="242.1" x2="243.2" y2="270.1"/><line x1="319.4" y1="179.1" x2="254.3" y2="288.5"/><line x1="319.4" y1="179.1" x2="243.2" y2="270.1"/><line x1="198.5" y1="151.7" x2="252.9" y2="249.2"/><line x1="198.5" y1="151.7" x2="243.2" y2="270.1"/><line x1="100" y1="304.3" x2="243.2" y2="270.1"/><line x1="262.2" y1="191.8" x2="216.3" y2="232.2"/><line x1="262.2" y1="191.8" x2="217.5" y2="262.4"/><line x1="262.2" y1="191.8" x2="231.1" y2="248.6"/><line x1="262.2" y1="191.8" x2="281.3" y2="302"/><line x1="262.2" y1="191.8" x2="252.9" y2="249.2"/><line x1="262.2" y1="191.8" x2="243.2" y2="270.1"/><line x1="262.2" y1="191.8" x2="220.8" y2="278.5"/><line x1="199" y1="377.1" x2="254.3" y2="288.5"/><line x1="199" y1="377.1" x2="190.1" y2="283.2"/><line x1="199" y1="377.1" x2="243.2" y2="270.1"/><line x1="316.5" y1="375.6" x2="254.3" y2="288.5"/><line x1="316.5" y1="375.6" x2="243.2" y2="270.1"/><line x1="282.5" y1="237.9" x2="216.3" y2="232.2"/><line x1="282.5" y1="237.9" x2="231.1" y2="248.6"/><line x1="282.5" y1="237.9" x2="254.3" y2="288.5"/><line x1="282.5" y1="237.9" x2="190.1" y2="283.2"/><line x1="282.5" y1="237.9" x2="243.2" y2="270.1"/><line x1="282.5" y1="237.9" x2="220.8" y2="278.5"/><line x1="176.6" y1="361.7" x2="148.4" y2="424.3"/><line x1="176.6" y1="361.7" x2="254.3" y2="288.5"/><line x1="176.6" y1="361.7" x2="243.2" y2="270.1"/><line x1="176.6" y1="361.7" x2="220.8" y2="278.5"/><line x1="219.1" y1="350" x2="209.1" y2="439.6"/><line x1="219.1" y1="350" x2="217.5" y2="262.4"/><line x1="219.1" y1="350" x2="185.7" y2="416"/><line x1="219.1" y1="350" x2="271.8" y2="449.8"/><line x1="228.7" y1="373.1" x2="148.4" y2="424.3"/><line x1="228.7" y1="373.1" x2="217.5" y2="262.4"/><line x1="228.7" y1="373.1" x2="281.3" y2="302"/><line x1="228.7" y1="373.1" x2="271.8" y2="449.8"/><line x1="279.3" y1="390.3" x2="209.1" y2="439.6"/><line x1="279.3" y1="390.3" x2="357.9" y2="287.9"/><line x1="279.3" y1="390.3" x2="185.7" y2="416"/><line x1="279.3" y1="390.3" x2="281.3" y2="302"/><line x1="279.3" y1="390.3" x2="368.9" y2="316"/><line x1="279.3" y1="390.3" x2="355.6" y2="399.7"/><line x1="279.3" y1="390.3" x2="271.8" y2="449.8"/><line x1="375.3" y1="457.2" x2="355.6" y2="399.7"/><line x1="126.2" y1="276.3" x2="217.5" y2="262.4"/><line x1="278.1" y1="336.1" x2="321.2" y2="310"/><line x1="278.1" y1="336.1" x2="409" y2="308.1"/><line x1="278.1" y1="336.1" x2="355.6" y2="399.7"/><line x1="278.1" y1="336.1" x2="329.6" y2="283.2"/><line x1="288.4" y1="366.8" x2="281.3" y2="302"/><line x1="288.4" y1="366.8" x2="368.9" y2="316"/><line x1="284.1" y1="279.6" x2="404.4" y2="265.3"/><line x1="284.1" y1="279.6" x2="368.9" y2="316"/><line x1="284.1" y1="279.6" x2="296.1" y2="329.3"/><line x1="284.1" y1="279.6" x2="219.1" y2="350"/><line x1="284.1" y1="279.6" x2="228.7" y2="373.1"/><line x1="225.3" y1="311.9" x2="217.5" y2="262.4"/><line x1="225.3" y1="311.9" x2="296.1" y2="329.3"/><line x1="321.2" y1="310" x2="357.9" y2="287.9"/><line x1="321.2" y1="310" x2="368.9" y2="316"/><line x1="321.2" y1="310" x2="399.8" y2="390.8"/><line x1="321.2" y1="310" x2="295.4" y2="410.9"/><line x1="321.2" y1="310" x2="406" y2="342.2"/><line x1="321.2" y1="310" x2="406" y2="342.2"/><line x1="321.2" y1="310" x2="409" y2="308.1"/><line x1="321.2" y1="310" x2="355.6" y2="399.7"/><line x1="295.4" y1="410.9" x2="296.1" y2="329.3"/><line x1="295.4" y1="410.9" x2="355.6" y2="399.7"/><line x1="295.4" y1="410.9" x2="329.6" y2="283.2"/><line x1="406" y1="342.2" x2="404.4" y2="265.3"/><line x1="406" y1="342.2" x2="368.9" y2="316"/><line x1="406" y1="342.2" x2="399.8" y2="390.8"/><line x1="406" y1="342.2" x2="321.2" y2="310"/><line x1="409" y1="308.1" x2="368.9" y2="316"/><line x1="409" y1="308.1" x2="329.6" y2="283.2"/><line x1="263.2" y1="162" x2="217.5" y2="262.4"/><line x1="365.4" y1="365.7" x2="281.3" y2="302"/><line x1="365.4" y1="365.7" x2="281.3" y2="302"/><line x1="365.4" y1="365.7" x2="375.3" y2="457.2"/></g>
<g class="plot-nodes"><circle cx="254.3" cy="288.5" r="8.0" fill="#0d2a44" stroke="#9fbccc" stroke-width="1"/><circle cx="271.8" cy="449.8" r="8.0" fill="#0d2a44" stroke="#9fbccc" stroke-width="1"/><circle cx="281.3" cy="302" r="8.0" fill="#0d2a44" stroke="#9fbccc" stroke-width="1"/><circle cx="368.9" cy="316" r="8.0" fill="#0d2a44" stroke="#9fbccc" stroke-width="1"/><circle cx="296.1" cy="329.3" r="8.0" fill="#0d2a44" stroke="#9fbccc" stroke-width="1"/><circle cx="217.5" cy="262.4" r="8.0" fill="#0d2a44" stroke="#9fbccc" stroke-width="1"/><circle cx="190.4" cy="252.6" r="8.0" fill="#0d2a44" stroke="#9fbccc" stroke-width="1"/><circle cx="399.8" cy="390.8" r="8.0" fill="#0d2a44" stroke="#9fbccc" stroke-width="1"/><circle cx="243.2" cy="270.1" r="8.0" fill="#0d2a44" stroke="#9fbccc" stroke-width="1"/><circle cx="207.1" cy="326.9" r="8.0" fill="#0d2a44" stroke="#9fbccc" stroke-width="1"/><circle cx="234.2" cy="199.4" r="8.0" fill="#0d2a44" stroke="#9fbccc" stroke-width="1"/><circle cx="321.2" cy="310" r="8.0" fill="#0d2a44" stroke="#9fbccc" stroke-width="1"/><circle cx="220.8" cy="278.5" r="8.0" fill="#0d2a44" stroke="#9fbccc" stroke-width="1"/><circle cx="329.6" cy="283.2" r="8.0" fill="#0d2a44" stroke="#9fbccc" stroke-width="1"/><circle cx="185.7" cy="416" r="8.0" fill="#0d2a44" stroke="#9fbccc" stroke-width="1"/><circle cx="252.9" cy="249.2" r="8.0" fill="#0d2a44" stroke="#9fbccc" stroke-width="1"/><circle cx="375.3" cy="457.2" r="8.0" fill="#0d2a44" stroke="#9fbccc" stroke-width="1"/><circle cx="147.6" cy="213.3" r="8.0" fill="#0d2a44" stroke="#9fbccc" stroke-width="1"/><circle cx="404.4" cy="265.3" r="8.0" fill="#0d2a44" stroke="#9fbccc" stroke-width="1"/><circle cx="357.9" cy="287.9" r="8.0" fill="#0d2a44" stroke="#9fbccc" stroke-width="1"/><circle cx="321.9" cy="413.4" r="8.0" fill="#0d2a44" stroke="#9fbccc" stroke-width="1"/><circle cx="83.8" cy="386.4" r="7.8" fill="#0d2a44" stroke="#9fbccc" stroke-width="1"/><circle cx="231.1" cy="248.6" r="7.4" fill="#0d2a44" stroke="#9fbccc" stroke-width="1"/><circle cx="209.1" cy="439.6" r="7.4" fill="#0d2a44" stroke="#9fbccc" stroke-width="1"/><circle cx="152" cy="467.5" r="7.3" fill="#0d2a44" stroke="#9fbccc" stroke-width="1"/><circle cx="342.4" cy="320.5" r="7.3" fill="#0d2a44" stroke="#9fbccc" stroke-width="1"/><circle cx="178.6" cy="333.5" r="7.2" fill="#0d2a44" stroke="#9fbccc" stroke-width="1"/><circle cx="140" cy="326.3" r="7.1" fill="#0d2a44" stroke="#9fbccc" stroke-width="1"/><circle cx="148.4" cy="424.3" r="7.0" fill="#0d2a44" stroke="#9fbccc" stroke-width="1"/><circle cx="295.4" cy="410.9" r="6.9" fill="#0d2a44" stroke="#9fbccc" stroke-width="1"/><circle cx="362.2" cy="255.1" r="6.9" fill="#0d2a44" stroke="#9fbccc" stroke-width="1"/><circle cx="243" cy="343" r="6.8" fill="#0d2a44" stroke="#9fbccc" stroke-width="1"/><circle cx="406" cy="342.2" r="6.8" fill="#0d2a44" stroke="#9fbccc" stroke-width="1"/><circle cx="263.2" cy="162" r="6.8" fill="#0d2a44" stroke="#9fbccc" stroke-width="1"/><circle cx="288.4" cy="366.8" r="6.8" fill="#0d2a44" stroke="#9fbccc" stroke-width="1"/><circle cx="181.2" cy="195.7" r="6.8" fill="#0d2a44" stroke="#9fbccc" stroke-width="1"/><circle cx="291.6" cy="170" r="6.8" fill="#0d2a44" stroke="#9fbccc" stroke-width="1"/><circle cx="278.1" cy="336.1" r="6.7" fill="#0d2a44" stroke="#9fbccc" stroke-width="1"/><circle cx="316.5" cy="375.6" r="6.7" fill="#0d2a44" stroke="#9fbccc" stroke-width="1"/><circle cx="190.1" cy="283.2" r="6.6" fill="#0d2a44" stroke="#9fbccc" stroke-width="1"/><circle cx="150.8" cy="180.3" r="6.6" fill="#0d2a44" stroke="#9fbccc" stroke-width="1"/><circle cx="375.9" cy="211.9" r="6.6" fill="#0d2a44" stroke="#9fbccc" stroke-width="1"/><circle cx="263.6" cy="355.4" r="6.6" fill="#0d2a44" stroke="#9fbccc" stroke-width="1"/><circle cx="262.2" cy="191.8" r="6.6" fill="#0d2a44" stroke="#9fbccc" stroke-width="1"/><circle cx="282.5" cy="237.9" r="6.6" fill="#0d2a44" stroke="#9fbccc" stroke-width="1"/><circle cx="246.4" cy="385.8" r="6.5" fill="#0d2a44" stroke="#9fbccc" stroke-width="1"/><circle cx="216.3" cy="232.2" r="6.5" fill="#0d2a44" stroke="#9fbccc" stroke-width="1"/><circle cx="183.8" cy="310.3" r="6.5" fill="#0d2a44" stroke="#9fbccc" stroke-width="1"/><circle cx="337.8" cy="242.1" r="6.5" fill="#0d2a44" stroke="#9fbccc" stroke-width="1"/><circle cx="198.5" cy="151.7" r="6.3" fill="#0d2a44" stroke="#9fbccc" stroke-width="1"/><circle cx="177.8" cy="226.3" r="6.3" fill="#0d2a44" stroke="#9fbccc" stroke-width="1"/><circle cx="176.6" cy="361.7" r="6.3" fill="#0d2a44" stroke="#9fbccc" stroke-width="1"/><circle cx="302.6" cy="263.2" r="6.2" fill="#0d2a44" stroke="#9fbccc" stroke-width="1"/><circle cx="306.6" cy="209.9" r="6.2" fill="#0d2a44" stroke="#9fbccc" stroke-width="1"/><circle cx="205" cy="187.4" r="6.2" fill="#0d2a44" stroke="#9fbccc" stroke-width="1"/><circle cx="149.3" cy="353.2" r="6.2" fill="#0d2a44" stroke="#9fbccc" stroke-width="1"/><circle cx="409" cy="308.1" r="6.2" fill="#0d2a44" stroke="#9fbccc" stroke-width="1"/><circle cx="319.4" cy="179.1" r="6.2" fill="#0d2a44" stroke="#9fbccc" stroke-width="1"/><circle cx="156.4" cy="242" r="6.1" fill="#0d2a44" stroke="#9fbccc" stroke-width="1"/><circle cx="289.3" cy="508.7" r="6.1" fill="#0d2a44" stroke="#9fbccc" stroke-width="1"/><circle cx="158.6" cy="270.5" r="6.1" fill="#0d2a44" stroke="#9fbccc" stroke-width="1"/><circle cx="307.8" cy="236.1" r="6.1" fill="#0d2a44" stroke="#9fbccc" stroke-width="1"/><circle cx="225.3" cy="311.9" r="6.1" fill="#0d2a44" stroke="#9fbccc" stroke-width="1"/><circle cx="379.1" cy="135.7" r="6.1" fill="#0d2a44" stroke="#9fbccc" stroke-width="1"/><circle cx="126.2" cy="276.3" r="6.1" fill="#0d2a44" stroke="#9fbccc" stroke-width="1"/><circle cx="279.3" cy="390.3" r="6.0" fill="#0d2a44" stroke="#9fbccc" stroke-width="1"/><circle cx="365.4" cy="365.7" r="6.0" fill="#0d2a44" stroke="#9fbccc" stroke-width="1"/><circle cx="238.8" cy="445.9" r="5.9" fill="#0d2a44" stroke="#9fbccc" stroke-width="1"/><circle cx="227.3" cy="168" r="5.9" fill="#0d2a44" stroke="#9fbccc" stroke-width="1"/><circle cx="219.1" cy="350" r="5.9" fill="#0d2a44" stroke="#9fbccc" stroke-width="1"/><circle cx="339.1" cy="208" r="5.9" fill="#0d2a44" stroke="#9fbccc" stroke-width="1"/><circle cx="128.1" cy="240.5" r="5.9" fill="#0d2a44" stroke="#9fbccc" stroke-width="1"/><circle cx="100" cy="304.3" r="5.9" fill="#0d2a44" stroke="#9fbccc" stroke-width="1"/><circle cx="314.4" cy="336.5" r="5.9" fill="#0d2a44" stroke="#9fbccc" stroke-width="1"/><circle cx="249.6" cy="318.6" r="5.9" fill="#0d2a44" stroke="#9fbccc" stroke-width="1"/><circle cx="103.2" cy="413.9" r="5.9" fill="#0d2a44" stroke="#9fbccc" stroke-width="1"/><circle cx="228.7" cy="373.1" r="5.9" fill="#0d2a44" stroke="#9fbccc" stroke-width="1"/><circle cx="284.1" cy="279.6" r="5.9" fill="#0d2a44" stroke="#9fbccc" stroke-width="1"/><circle cx="148.9" cy="299.1" r="5.9" fill="#0d2a44" stroke="#9fbccc" stroke-width="1"/><circle cx="199" cy="377.1" r="5.9" fill="#0d2a44" stroke="#9fbccc" stroke-width="1"/><circle cx="275.6" cy="211.2" r="5.8" fill="#0d2a44" stroke="#9fbccc" stroke-width="1"/><circle cx="334.5" cy="355.4" r="5.8" fill="#0d2a44" stroke="#9fbccc" stroke-width="1"/></g>
<g><circle cx="254.3" cy="288.5" r="1.4" fill="#eef4f7"/><circle cx="271.8" cy="449.8" r="1.4" fill="#eef4f7"/><circle cx="281.3" cy="302" r="1.4" fill="#eef4f7"/><circle cx="368.9" cy="316" r="1.4" fill="#eef4f7"/><circle cx="296.1" cy="329.3" r="1.4" fill="#eef4f7"/><circle cx="217.5" cy="262.4" r="1.4" fill="#eef4f7"/><circle cx="190.4" cy="252.6" r="1.4" fill="#eef4f7"/><circle cx="399.8" cy="390.8" r="1.4" fill="#eef4f7"/></g>
<circle cx="355.6" cy="399.7" r="7.5" fill="#e0563f"/><circle cx="355.6" cy="399.7" r="2.4" fill="#0d2a44"/><circle cx="355.6" cy="399.7" r="12.5" fill="none" stroke="#e0563f" stroke-width="1" stroke-dasharray="3 3"/>
<polyline points="355.6,399.7 480.4,399.7 480.4,58.0 494.4,58.0" fill="none" stroke="#e0563f" stroke-width="1"/><circle cx="355.6" cy="399.7" r="3.4" fill="none" stroke="#e0563f" stroke-width="1.4"/><circle cx="505.40000000000003" cy="58.0" r="11" fill="none" stroke="#e0563f" stroke-width="1.4"/><text x="505.40000000000003" y="62.0" text-anchor="middle" fill="#e0563f" font-family="ui-monospace,'Spline Sans Mono',monospace" font-size="12" font-weight="600">1</text><text x="522.4000000000001" y="57.0" fill="#eef4f7" font-family="ui-monospace,'Spline Sans Mono',monospace" font-size="12">String</text><text x="522.4000000000001" y="71.0" fill="#557a93" font-family="ui-monospace,'Spline Sans Mono',monospace" font-size="9.5" letter-spacing="0.06em">FILE - DEG 936</text><polyline points="254.3,288.5 480.4,288.5 480.4,265.3 494.4,265.3" fill="none" stroke="#e0563f" stroke-width="1"/><circle cx="254.3" cy="288.5" r="3.4" fill="none" stroke="#e0563f" stroke-width="1.4"/><circle cx="505.40000000000003" cy="265.3" r="11" fill="none" stroke="#e0563f" stroke-width="1.4"/><text x="505.40000000000003" y="269.3" text-anchor="middle" fill="#e0563f" font-family="ui-monospace,'Spline Sans Mono',monospace" font-size="12" font-weight="600">2</text><text x="522.4000000000001" y="264.3" fill="#eef4f7" font-family="ui-monospace,'Spline Sans Mono',monospace" font-size="12">Path</text><text x="522.4000000000001" y="278.3" fill="#557a93" font-family="ui-monospace,'Spline Sans Mono',monospace" font-size="9.5" letter-spacing="0.06em">FILE - DEG 663</text><polyline points="271.8,449.8 480.4,449.8 480.4,472.5 494.4,472.5" fill="none" stroke="#e0563f" stroke-width="1"/><circle cx="271.8" cy="449.8" r="3.4" fill="none" stroke="#e0563f" stroke-width="1.4"/><circle cx="505.40000000000003" cy="472.5" r="11" fill="none" stroke="#e0563f" stroke-width="1.4"/><text x="505.40000000000003" y="476.5" text-anchor="middle" fill="#e0563f" font-family="ui-monospace,'Spline Sans Mono',monospace" font-size="12" font-weight="600">3</text><text x="522.4000000000001" y="471.5" fill="#eef4f7" font-family="ui-monospace,'Spline Sans Mono',monospace" font-size="12">Vec</text><text x="522.4000000000001" y="485.5" fill="#557a93" font-family="ui-monospace,'Spline Sans Mono',monospace" font-size="9.5" letter-spacing="0.06em">FILE - DEG 557</text>
<g stroke="#557a93" stroke-width="1"><line x1="26" y1="532" x2="480.40000000000003" y2="532"/><line x1="26" y1="528" x2="26" y2="536"/><line x1="480.40000000000003" y1="528" x2="480.40000000000003" y2="536"/></g><rect x="228" y="523" width="200" height="18" fill="#0d2a44"/><text x="253" y="536" text-anchor="middle" fill="#9fbccc" font-family="ui-monospace,'Spline Sans Mono',monospace" font-size="10.5" letter-spacing="0.08em">1,179 NODES  /  5,257 EDGES  -  CORE</text>
</svg>
